<svg width="133" height="24" viewBox="0 0 133 24" fill="none" xmlns="http://www.w3.org/2000/svg">
<g clip-path="url(#clip0_58_334)">
<path d="M8.80005 7.64131H0.108942C0.0485731 7.64131 0 7.68989 0 7.74874V23.3912C0 23.4507 0.049267 23.4986 0.108942 23.4986H4.95306C5.01343 23.4986 5.06201 23.45 5.06201 23.3912V19.1423C5.06201 19.0828 5.11127 19.0349 5.17095 19.0349H8.80768C9.46481 19.0349 10.1129 18.8885 10.7027 18.6031C12.0371 17.9571 14.0452 16.4592 14.0452 13.2916C14.0452 10.1239 12.1766 8.76425 10.8526 8.11211C10.2156 7.79801 9.5113 7.64062 8.79866 7.64062L8.80005 7.64131ZM8.51486 15.0297H4.63942C4.57905 15.0297 4.53048 14.9811 4.53048 14.9223V11.6965C4.53048 11.6369 4.57975 11.589 4.63942 11.589H8.49127C8.49127 11.589 9.51685 11.4262 9.51685 13.31C9.51685 15.1939 8.51486 15.0311 8.51486 15.0311V15.0297Z" fill="#3FB9AF"/>
<path d="M15.7387 7.64136H20.4697C20.544 7.64136 20.6036 7.70021 20.6036 7.77343V19.3976C20.6036 19.4708 20.6633 19.5297 20.7376 19.5297H28.487C28.5613 19.5297 28.621 19.5885 28.621 19.6618V23.3679C28.621 23.4412 28.5613 23.5 28.487 23.5H15.7394C15.6651 23.5 15.6055 23.4412 15.6055 23.3679V7.77343C15.6055 7.70021 15.6651 7.64136 15.7394 7.64136H15.7387Z" fill="#3FB9AF"/>
<path d="M49.7628 7.72005L52.3434 12.3363C52.4017 12.441 52.5543 12.4417 52.614 12.3377L55.2453 7.71937C55.2723 7.67147 55.3244 7.64136 55.3799 7.64136H60.4731C60.5952 7.64136 60.6688 7.77411 60.6043 7.87539L54.7651 17.0039C54.7498 17.0286 54.7415 17.0566 54.7415 17.0854V23.2892C54.7415 23.3734 54.6721 23.4418 54.5868 23.4418H50.3866C50.3012 23.4418 50.2318 23.3734 50.2318 23.2892V17.5343C50.2318 17.5083 50.2249 17.483 50.2124 17.4604L44.8069 7.86854C44.7493 7.76658 44.8243 7.64204 44.9422 7.64204H49.6274C49.6837 7.64204 49.7357 7.67215 49.7628 7.72074V7.72005Z" fill="#3FB9AF"/>
<path d="M71.2924 7.64136H64.5123C64.4284 7.64136 64.3604 7.70842 64.3604 7.79053V23.2927C64.3604 23.3748 64.4284 23.4418 64.5123 23.4418H72.1751C72.7912 23.4418 73.4005 23.3105 73.957 23.0504C75.6383 22.2655 78.8435 20.162 78.8435 15.5423C78.8435 11.5138 76.2302 9.39864 74.3664 8.40298C73.4234 7.89934 72.3652 7.64273 71.2917 7.64273L71.2924 7.64136ZM70.8969 19.5413H68.9776C68.8936 19.5413 68.8256 19.4743 68.8256 19.3922V11.8717C68.8256 11.7896 68.8936 11.7225 68.9776 11.7225H71.1384C72.5421 11.7225 73.7995 12.6169 74.1929 13.941C74.3303 14.4022 74.4136 14.9593 74.4136 15.6319C74.4136 15.998 74.3886 16.3292 74.3442 16.6303C74.0951 18.3062 72.6199 19.5413 70.8962 19.5413H70.8969Z" fill="#504197"/>
<path d="M94.3601 7.66317V11.4104C94.3601 11.4542 94.3962 11.4898 94.4406 11.4898H99.3013C99.3458 11.4898 99.3818 11.5254 99.3818 11.5691V23.2864C99.3818 23.3302 99.4179 23.3658 99.4623 23.3658H103.333C103.377 23.3658 103.413 23.3302 103.413 23.2864V11.5869C103.413 11.5431 103.449 11.5076 103.494 11.5076H107.913C107.957 11.5076 107.993 11.472 107.993 11.4282V7.66385C107.993 7.62006 107.957 7.58447 107.913 7.58447H94.4399C94.3955 7.58447 94.3594 7.62006 94.3594 7.66385L94.3601 7.66317Z" fill="#504197"/>
<path d="M41.7275 23.4999H46.4565C46.564 23.4999 46.6334 23.387 46.5827 23.2925L38.2962 7.87596C38.2428 7.77605 38.0977 7.77605 38.0436 7.87596L29.723 23.2925C29.6724 23.3863 29.7411 23.4999 29.8493 23.4999H34.5519C34.6046 23.4999 34.6532 23.4711 34.6782 23.4253L35.1778 22.4981C35.2028 22.4522 35.2513 22.4235 35.3041 22.4235H40.9781C41.0308 22.4235 41.0801 22.4522 41.1044 22.4988L41.6005 23.4253C41.6255 23.4718 41.6741 23.5006 41.7268 23.5006L41.7275 23.4999ZM36.9583 19.1929L38.0235 17.216C38.0776 17.1161 38.2226 17.1161 38.2761 17.216L39.335 19.1929C39.3849 19.2867 39.3162 19.3996 39.2087 19.3996H37.0846C36.9771 19.3996 36.9077 19.286 36.9583 19.1922V19.1929Z" fill="#3FB9AF"/>
<path d="M90.6172 23.4999H95.3461C95.4537 23.4999 95.5231 23.387 95.4724 23.2925L87.1858 7.87596C87.1324 7.77605 86.9874 7.77605 86.9332 7.87596L78.6127 23.2925C78.562 23.3863 78.6307 23.4999 78.739 23.4999H83.4415C83.4943 23.4999 83.5428 23.4711 83.5678 23.4253L84.0674 22.4981C84.0924 22.4522 84.141 22.4235 84.1937 22.4235H89.8678C89.9205 22.4235 89.9698 22.4522 89.9941 22.4988L90.4902 23.4253C90.5152 23.4718 90.5637 23.5006 90.6165 23.5006L90.6172 23.4999ZM85.848 19.1929L86.9131 17.216C86.9673 17.1161 87.1123 17.1161 87.1657 17.216L88.2246 19.1929C88.2746 19.2867 88.2059 19.3996 88.0983 19.3996H85.9743C85.8667 19.3996 85.7973 19.286 85.848 19.1922V19.1929Z" fill="#504197"/>
<path d="M119.07 23.4999H123.799C123.907 23.4999 123.976 23.387 123.926 23.2925L115.639 7.87596C115.586 7.77605 115.441 7.77605 115.386 7.87596L107.066 23.2925C107.015 23.3863 107.084 23.4999 107.192 23.4999H111.895C111.947 23.4999 111.996 23.4711 112.021 23.4253L112.521 22.4981C112.546 22.4522 112.594 22.4235 112.647 22.4235H118.321C118.374 22.4235 118.423 22.4522 118.447 22.4988L118.943 23.4253C118.968 23.4718 119.017 23.5006 119.07 23.5006L119.07 23.4999ZM114.301 19.1929L115.366 17.216C115.42 17.1161 115.565 17.1161 115.619 17.216L116.678 19.1929C116.728 19.2867 116.659 19.3996 116.551 19.3996H114.427C114.32 19.3996 114.25 19.286 114.301 19.1922V19.1929Z" fill="#504197"/>
<path d="M128.065 0.5C125.341 0.5 123.132 2.67813 123.132 5.36537C123.132 8.05262 125.341 10.2307 128.065 10.2307C130.79 10.2307 132.999 8.05262 132.999 5.36537C132.999 2.67813 130.79 0.5 128.065 0.5ZM128.172 7.56266C126.941 7.56266 125.944 6.57864 125.944 5.36537C125.944 4.15211 126.941 3.16809 128.172 3.16809C129.402 3.16809 130.4 4.15211 130.4 5.36537C130.4 6.57864 129.402 7.56266 128.172 7.56266Z" fill="#3FB9AF"/>
</g>
<defs>
<clipPath id="clip0_58_334">
<rect width="133" height="23" fill="white" transform="translate(0 0.5)"/>
</clipPath>
</defs>
</svg>
