<svg width="133" height="24" viewBox="0 0 133 24" fill="none" xmlns="http://www.w3.org/2000/svg">
<path d="M8.80005 7.45189H0.108942C0.0485731 7.45189 0 7.50258 0 7.56399V23.8863C0 23.9484 0.049267 23.9984 0.108942 23.9984H4.95306C5.01343 23.9984 5.06201 23.9477 5.06201 23.8863V19.4528C5.06201 19.3907 5.11127 19.3407 5.17095 19.3407H8.80768C9.46481 19.3407 10.1129 19.1879 10.7027 18.8901C12.0371 18.2161 14.0452 16.653 14.0452 13.3477C14.0452 10.0424 12.1766 8.62363 10.8526 7.94315C10.2156 7.6154 9.5113 7.45117 8.79866 7.45117L8.80005 7.45189ZM8.51486 15.1614H4.63942C4.57905 15.1614 4.53048 15.1107 4.53048 15.0493V11.6833C4.53048 11.6212 4.57975 11.5712 4.63942 11.5712H8.49127C8.49127 11.5712 9.51685 11.4013 9.51685 13.367C9.51685 15.3328 8.51486 15.1628 8.51486 15.1628V15.1614Z" fill="#3FB9AF"/>
<path d="M15.7387 7.45215H20.4697C20.544 7.45215 20.6036 7.51356 20.6036 7.58996V19.7194C20.6036 19.7958 20.6633 19.8572 20.7376 19.8572H28.487C28.5613 19.8572 28.621 19.9186 28.621 19.995V23.8623C28.621 23.9387 28.5613 24.0001 28.487 24.0001H15.7394C15.6651 24.0001 15.6055 23.9387 15.6055 23.8623V7.58996C15.6055 7.51356 15.6651 7.45215 15.7394 7.45215H15.7387Z" fill="#3FB9AF"/>
<path d="M49.7628 7.53426L52.3434 12.3512C52.4017 12.4604 52.5543 12.4612 52.614 12.3526L55.2453 7.53355C55.2723 7.48357 55.3244 7.45215 55.3799 7.45215H60.4731C60.5952 7.45215 60.6688 7.59067 60.6043 7.69635L54.7651 17.2217C54.7498 17.2474 54.7415 17.2766 54.7415 17.3066V23.7801C54.7415 23.868 54.6721 23.9394 54.5868 23.9394H50.3866C50.3012 23.9394 50.2318 23.868 50.2318 23.7801V17.775C50.2318 17.7479 50.2249 17.7215 50.2124 17.6979L44.8069 7.68921C44.7493 7.58282 44.8243 7.45286 44.9422 7.45286H49.6274C49.6837 7.45286 49.7357 7.48428 49.7628 7.53498V7.53426Z" fill="#3FB9AF"/>
<path d="M71.2924 7.45215H64.5123C64.4284 7.45215 64.3604 7.52212 64.3604 7.60781V23.7837C64.3604 23.8694 64.4284 23.9394 64.5123 23.9394H72.1751C72.7912 23.9394 73.4005 23.8023 73.957 23.5309C75.6383 22.7119 78.8435 20.517 78.8435 15.6965C78.8435 11.4929 76.2302 9.28581 74.3664 8.24688C73.4234 7.72134 72.3652 7.45358 71.2917 7.45358L71.2924 7.45215ZM70.8969 19.8693H68.9776C68.8936 19.8693 68.8256 19.7994 68.8256 19.7137V11.8664C68.8256 11.7807 68.8936 11.7107 68.9776 11.7107H71.1384C72.5421 11.7107 73.7995 12.6439 74.1929 14.0256C74.3303 14.5069 74.4136 15.0881 74.4136 15.79C74.4136 16.172 74.3886 16.5176 74.3442 16.8318C74.0951 18.5805 72.6199 19.8693 70.8962 19.8693H70.8969Z" fill="#504197"/>
<path d="M94.3601 7.47469V11.3848C94.3601 11.4305 94.3962 11.4676 94.4406 11.4676H99.3013C99.3458 11.4676 99.3818 11.5047 99.3818 11.5504V23.777C99.3818 23.8227 99.4179 23.8598 99.4623 23.8598H103.333C103.377 23.8598 103.413 23.8227 103.413 23.777V11.569C103.413 11.5233 103.449 11.4862 103.494 11.4862H107.913C107.957 11.4862 107.993 11.449 107.993 11.4034V7.47541C107.993 7.42971 107.957 7.39258 107.913 7.39258H94.4399C94.3955 7.39258 94.3594 7.42971 94.3594 7.47541L94.3601 7.47469Z" fill="#504197"/>
<path d="M41.7275 23.9994H46.4565C46.564 23.9994 46.6334 23.8815 46.5827 23.783L38.2962 7.69635C38.2428 7.5921 38.0977 7.5921 38.0436 7.69635L29.723 23.783C29.6724 23.8808 29.7411 23.9994 29.8493 23.9994H34.5519C34.6046 23.9994 34.6532 23.9694 34.6782 23.9215L35.1778 22.954C35.2028 22.9062 35.2513 22.8762 35.3041 22.8762H40.9781C41.0308 22.8762 41.0801 22.9062 41.1044 22.9547L41.6005 23.9215C41.6255 23.9701 41.6741 24.0001 41.7268 24.0001L41.7275 23.9994ZM36.9583 19.5052L38.0235 17.4423C38.0776 17.3381 38.2226 17.3381 38.2761 17.4423L39.335 19.5052C39.3849 19.603 39.3162 19.7208 39.2087 19.7208H37.0846C36.9771 19.7208 36.9077 19.6023 36.9583 19.5045V19.5052Z" fill="#3FB9AF"/>
<path d="M90.6172 23.9994H95.3461C95.4537 23.9994 95.5231 23.8815 95.4724 23.783L87.1858 7.69635C87.1324 7.5921 86.9874 7.5921 86.9332 7.69635L78.6127 23.783C78.562 23.8808 78.6307 23.9994 78.739 23.9994H83.4415C83.4943 23.9994 83.5428 23.9694 83.5678 23.9215L84.0674 22.954C84.0924 22.9062 84.141 22.8762 84.1937 22.8762H89.8678C89.9205 22.8762 89.9698 22.9062 89.9941 22.9547L90.4902 23.9215C90.5152 23.9701 90.5637 24.0001 90.6165 24.0001L90.6172 23.9994ZM85.848 19.5052L86.9131 17.4423C86.9673 17.3381 87.1123 17.3381 87.1657 17.4423L88.2246 19.5052C88.2746 19.603 88.2059 19.7208 88.0983 19.7208H85.9743C85.8667 19.7208 85.7973 19.6023 85.848 19.5045V19.5052Z" fill="#504197"/>
<path d="M119.07 23.9994H123.799C123.907 23.9994 123.976 23.8815 123.926 23.783L115.639 7.69635C115.586 7.5921 115.441 7.5921 115.386 7.69635L107.066 23.783C107.015 23.8808 107.084 23.9994 107.192 23.9994H111.895C111.947 23.9994 111.996 23.9694 112.021 23.9215L112.521 22.954C112.546 22.9062 112.594 22.8762 112.647 22.8762H118.321C118.374 22.8762 118.423 22.9062 118.447 22.9547L118.943 23.9215C118.968 23.9701 119.017 24.0001 119.07 24.0001L119.07 23.9994ZM114.301 19.5052L115.366 17.4423C115.42 17.3381 115.565 17.3381 115.619 17.4423L116.678 19.5052C116.728 19.603 116.659 19.7208 116.551 19.7208H114.427C114.32 19.7208 114.25 19.6023 114.301 19.5045V19.5052Z" fill="#504197"/>
<path d="M128.065 0C125.341 0 123.132 2.27279 123.132 5.07684C123.132 7.88088 125.341 10.1537 128.065 10.1537C130.79 10.1537 132.999 7.88088 132.999 5.07684C132.999 2.27279 130.79 0 128.065 0ZM128.172 7.36962C126.941 7.36962 125.944 6.34283 125.944 5.07684C125.944 3.81084 126.941 2.78405 128.172 2.78405C129.402 2.78405 130.4 3.81084 130.4 5.07684C130.4 6.34283 129.402 7.36962 128.172 7.36962Z" fill="#3FB9AF"/>
</svg>
