<svg width="133" height="24" viewBox="0 0 133 24" fill="none" xmlns="http://www.w3.org/2000/svg">
<g clip-path="url(#clip0_76_852)">
<path d="M8.80005 7.64131H0.108942C0.0485731 7.64131 0 7.68989 0 7.74874V23.3912C0 23.4507 0.049267 23.4986 0.108942 23.4986H4.95306C5.01343 23.4986 5.06201 23.45 5.06201 23.3912V19.1423C5.06201 19.0828 5.11127 19.0349 5.17095 19.0349H8.80768C9.46481 19.0349 10.1129 18.8885 10.7027 18.6031C12.0371 17.9571 14.0452 16.4592 14.0452 13.2916C14.0452 10.1239 12.1766 8.76425 10.8526 8.11211C10.2156 7.79801 9.5113 7.64062 8.79866 7.64062L8.80005 7.64131ZM8.51486 15.0297H4.63942C4.57905 15.0297 4.53048 14.9811 4.53048 14.9223V11.6965C4.53048 11.6369 4.57975 11.589 4.63942 11.589H8.49127C8.49127 11.589 9.51685 11.4262 9.51685 13.31C9.51685 15.1939 8.51486 15.0311 8.51486 15.0311V15.0297Z" fill="#3FB9AF"/>
<path d="M15.7389 7.6416H20.47C20.5442 7.6416 20.6039 7.70045 20.6039 7.77367V19.3979C20.6039 19.4711 20.6636 19.5299 20.7378 19.5299H28.4873C28.5615 19.5299 28.6212 19.5888 28.6212 19.662V23.3682C28.6212 23.4414 28.5615 23.5002 28.4873 23.5002H15.7396C15.6654 23.5002 15.6057 23.4414 15.6057 23.3682V7.77367C15.6057 7.70045 15.6654 7.6416 15.7396 7.6416H15.7389Z" fill="#3FB9AF"/>
<path d="M49.7625 7.7203L52.3431 12.3366C52.4014 12.4413 52.5541 12.442 52.6138 12.338L55.245 7.71961C55.2721 7.67171 55.3241 7.6416 55.3796 7.6416H60.4729C60.595 7.6416 60.6686 7.77436 60.604 7.87563L54.7648 17.0042C54.7496 17.0288 54.7413 17.0569 54.7413 17.0856V23.2895C54.7413 23.3737 54.6719 23.4421 54.5865 23.4421H50.3863C50.301 23.4421 50.2316 23.3737 50.2316 23.2895V17.5345C50.2316 17.5085 50.2247 17.4832 50.2122 17.4606L44.8067 7.86879C44.7491 7.76683 44.824 7.64229 44.942 7.64229H49.6272C49.6834 7.64229 49.7355 7.67239 49.7625 7.72098V7.7203Z" fill="#3FB9AF"/>
<path d="M71.2922 7.6416H64.5121C64.4281 7.6416 64.3601 7.70866 64.3601 7.79078V23.2929C64.3601 23.375 64.4281 23.4421 64.5121 23.4421H72.1748C72.791 23.4421 73.4003 23.3107 73.9568 23.0507C75.6381 22.2658 78.8432 20.1622 78.8432 15.5425C78.8432 11.5141 76.23 9.39888 74.3662 8.40323C73.4231 7.89958 72.365 7.64297 71.2915 7.64297L71.2922 7.6416ZM70.8967 19.5416H68.9773C68.8934 19.5416 68.8254 19.4745 68.8254 19.3924V11.8719C68.8254 11.7898 68.8934 11.7228 68.9773 11.7228H71.1381C72.5419 11.7228 73.7992 12.6171 74.1927 13.9413C74.3301 14.4025 74.4133 14.9595 74.4133 15.6322C74.4133 15.9983 74.3884 16.3295 74.344 16.6306C74.0948 18.3064 72.6196 19.5416 70.896 19.5416H70.8967Z" fill="#504197"/>
<path d="M94.3601 7.66366V11.4109C94.3601 11.4547 94.3962 11.4903 94.4406 11.4903H99.3013C99.3458 11.4903 99.3818 11.5258 99.3818 11.5696V23.2869C99.3818 23.3307 99.4179 23.3663 99.4623 23.3663H103.333C103.377 23.3663 103.413 23.3307 103.413 23.2869V11.5874C103.413 11.5436 103.449 11.5081 103.494 11.5081H107.913C107.957 11.5081 107.993 11.4725 107.993 11.4287V7.66434C107.993 7.62054 107.957 7.58496 107.913 7.58496H94.4399C94.3955 7.58496 94.3594 7.62054 94.3594 7.66434L94.3601 7.66366Z" fill="#504197"/>
<path d="M41.727 23.4996H46.456C46.5635 23.4996 46.6329 23.3867 46.5823 23.2923L38.2957 7.87571C38.2423 7.7758 38.0972 7.7758 38.0431 7.87571L29.7225 23.2923C29.6719 23.3861 29.7406 23.4996 29.8488 23.4996H34.5514C34.6041 23.4996 34.6527 23.4709 34.6777 23.4251L35.1773 22.4978C35.2023 22.452 35.2509 22.4232 35.3036 22.4232H40.9776C41.0304 22.4232 41.0796 22.452 41.1039 22.4985L41.6001 23.4251C41.625 23.4716 41.6736 23.5003 41.7263 23.5003L41.727 23.4996ZM36.9579 19.1927L38.023 17.2157C38.0771 17.1158 38.2221 17.1158 38.2756 17.2157L39.3345 19.1927C39.3844 19.2864 39.3157 19.3993 39.2082 19.3993H37.0841C36.9766 19.3993 36.9072 19.2857 36.9579 19.192V19.1927Z" fill="#3FB9AF"/>
<path d="M90.6172 23.4996H95.3461C95.4537 23.4996 95.5231 23.3867 95.4724 23.2923L87.1858 7.87571C87.1324 7.7758 86.9874 7.7758 86.9332 7.87571L78.6127 23.2923C78.562 23.3861 78.6307 23.4996 78.739 23.4996H83.4415C83.4943 23.4996 83.5428 23.4709 83.5678 23.4251L84.0674 22.4978C84.0924 22.452 84.141 22.4232 84.1937 22.4232H89.8678C89.9205 22.4232 89.9698 22.452 89.9941 22.4985L90.4902 23.4251C90.5152 23.4716 90.5637 23.5003 90.6165 23.5003L90.6172 23.4996ZM85.848 19.1927L86.9131 17.2157C86.9673 17.1158 87.1123 17.1158 87.1657 17.2157L88.2246 19.1927C88.2746 19.2864 88.2059 19.3993 88.0983 19.3993H85.9743C85.8667 19.3993 85.7973 19.2857 85.848 19.192V19.1927Z" fill="#504197"/>
<path d="M119.071 23.4996H123.799C123.907 23.4996 123.976 23.3867 123.926 23.2923L115.639 7.87571C115.586 7.7758 115.441 7.7758 115.387 7.87571L107.066 23.2923C107.015 23.3861 107.084 23.4996 107.192 23.4996H111.895C111.948 23.4996 111.996 23.4709 112.021 23.4251L112.521 22.4978C112.546 22.452 112.594 22.4232 112.647 22.4232H118.321C118.374 22.4232 118.423 22.452 118.447 22.4985L118.944 23.4251C118.969 23.4716 119.017 23.5003 119.07 23.5003L119.071 23.4996ZM114.301 19.1927L115.366 17.2157C115.421 17.1158 115.566 17.1158 115.619 17.2157L116.678 19.1927C116.728 19.2864 116.659 19.3993 116.552 19.3993H114.428C114.32 19.3993 114.251 19.2857 114.301 19.192V19.1927Z" fill="#504197"/>
<path d="M128.066 0.5C125.341 0.5 123.132 2.67813 123.132 5.36537C123.132 8.05262 125.341 10.2307 128.066 10.2307C130.791 10.2307 132.999 8.05262 132.999 5.36537C132.999 2.67813 130.791 0.5 128.066 0.5ZM128.172 7.56266C126.942 7.56266 125.944 6.57864 125.944 5.36537C125.944 4.15211 126.942 3.16809 128.172 3.16809C129.402 3.16809 130.4 4.15211 130.4 5.36537C130.4 6.57864 129.402 7.56266 128.172 7.56266Z" fill="#3FB9AF"/>
</g>
<defs>
<clipPath id="clip0_76_852">
<rect width="133" height="23" fill="white" transform="translate(0 0.5)"/>
</clipPath>
</defs>
</svg>
